<svg xmlns="http://www.w3.org/2000/svg" viewBox="0 0 1788 48" preserveAspectRatio="xMidYMid" width="1788" height="48" xmlns:xlink="http://www.w3.org/1999/xlink" style="shape-rendering:auto;display:block;background-position-x:0%;background-position-y:0%;background-size:auto;background-origin:padding-box;background-clip:border-box;background:scroll rgba(0, 0, 0, 0) none  repeat;width:1788px;height:48px;;animation:none"><g><linearGradient id="lg-5xn3qwps80o" x1="0" x2="1" y1="0" y2="0"><stop stop-color="#f0f0f0" offset="0"></stop>

  
<stop stop-color="#bdbdbd" offset="1"></stop></linearGradient>
<path d="M 0 0 L 0 20.14 Q 178.8 53.29 357.6 20.28 T 715.2 34.02 T 1072.8 36.51 T 1430.4 28.18 T 1788 34.1 L 1788 0 Z" fill="url(#lg-5xn3qwps80o)" opacity="0.4" style="fill:url('#lg-5xn3qwps80o');opacity:0.4;;animation:none"></path>
<path d="M 0 0 L 0 33.1059 Q 178.8 62.8263 357.6 26.6262 T 715.2 24.6602 T 1072.8 28.1174 T 1430.4 29.6372 T 1788 13.9438 L 1788 0 Z" fill="url(#lg-5xn3qwps80o)" opacity="0.4" style="fill:url('#lg-5xn3qwps80o');opacity:0.4;;animation:none"></path>
<path d="M 0 0 L 0 30.4418 Q 178.8 58.2976 357.6 35.8141 T 715.2 41.7476 T 1072.8 32.4822 T 1430.4 16.9348 T 1788 16.2457 L 1788 0 Z" fill="url(#lg-5xn3qwps80o)" opacity="0.4" style="fill:url('#lg-5xn3qwps80o');opacity:0.4;;animation:none"></path>
<path d="M 0 0 L 0 39.6731 Q 178.8 56.9966 357.6 17.7597 T 715.2 34.4195 T 1072.8 16.1699 T 1430.4 31.8589 T 1788 32.6118 L 1788 0 Z" fill="url(#lg-5xn3qwps80o)" opacity="0.4" style="fill:url('#lg-5xn3qwps80o');opacity:0.4;;animation:none"></path>
<path d="M 0 0 L 0 21.1744 Q 178.8 58.6023 357.6 21.3991 T 715.2 36.7086 T 1072.8 38.5614 T 1430.4 24.7306 T 1788 34.0683 L 1788 0 Z" fill="url(#lg-5xn3qwps80o)" opacity="0.4" style="fill:url('#lg-5xn3qwps80o');opacity:0.4;;animation:none"></path>
<g></g></g><!-- [ldio] generated by https://loading.io --></svg>